<svg xmlns="http://www.w3.org/2000/svg" xmlns:xlink="http://www.w3.org/1999/xlink" viewBox="0 0 487.57 570.06"><defs><style>.cls-1,.cls-10,.cls-17,.cls-18,.cls-19{fill:none;}.cls-2{fill:#6c3;stroke:#333;stroke-width:2.5px;}.cls-10,.cls-17,.cls-2,.cls-21,.cls-5,.cls-6{stroke-linecap:round;}.cls-10,.cls-17,.cls-2,.cls-21,.cls-3,.cls-4,.cls-5,.cls-6{stroke-linejoin:round;}.cls-11,.cls-12,.cls-14,.cls-15,.cls-16,.cls-2,.cls-20,.cls-21,.cls-22,.cls-23,.cls-24,.cls-25,.cls-40,.cls-41,.cls-5,.cls-6{fill-rule:evenodd;}.cls-3,.cls-4{stroke:#2c2929;}.cls-3{stroke-width:9.87px;fill:url(#linear-gradient);}.cls-4{stroke-width:9.6px;fill:url(#linear-gradient-2);}.cls-21,.cls-5,.cls-6{stroke-width:0.24px;}.cls-5{fill:url(#linear-gradient-3);stroke:url(#linear-gradient-4);}.cls-6{fill:url(#linear-gradient-5);stroke:url(#linear-gradient-6);}.cls-14,.cls-19,.cls-20,.cls-7,.cls-8,.cls-9{isolation:isolate;}.cls-7,.cls-8,.cls-9{opacity:0.4;}.cls-7{fill:url(#linear-gradient-7);}.cls-8{fill:url(#radial-gradient);}.cls-9{fill:url(#radial-gradient-2);}.cls-10{stroke:#555753;stroke-width:29.34px;}.cls-11{fill:url(#linear-gradient-8);}.cls-12{fill:url(#radial-gradient-3);}.cls-13{fill:url(#linear-gradient-9);}.cls-14{opacity:0.81;fill:url(#linear-gradient-10);}.cls-15,.cls-16,.cls-20{fill:#fff;}.cls-16{fill-opacity:0.46;}.cls-17{stroke-width:14.67px;stroke:url(#linear-gradient-11);}.cls-18{stroke:#fff;stroke-opacity:0.42;}.cls-18,.cls-19{stroke-linecap:square;stroke-width:14.67px;}.cls-19{stroke:#000;opacity:0.1;}.cls-20{opacity:0.44;}.cls-21{fill:url(#linear-gradient-12);stroke:url(#linear-gradient-13);}.cls-22{fill:url(#linear-gradient-14);}.cls-23{fill:#73d216;}.cls-23,.cls-25{fill-opacity:0.46;}.cls-24{fill:url(#linear-gradient-15);}.cls-25{fill:#c00;}.cls-26{clip-path:url(#clip-path);}.cls-27{fill:#302c2d;}.cls-28{fill:#272324;}.cls-29{fill:#393536;}.cls-30{fill:#a7a5a6;}.cls-31{fill:#f4f4f4;}.cls-32{clip-path:url(#clip-path-2);}.cls-33{opacity:0.15;}.cls-34{fill:url(#linear-gradient-16);}.cls-35{fill:#918f90;}.cls-36{fill:#e9e9e9;}.cls-37{clip-path:url(#clip-path-3);}.cls-38{opacity:0.3;}.cls-39{fill:url(#linear-gradient-17);}.cls-40{fill:#cc141c;}.cls-41{fill:#8c949c;}</style><linearGradient id="linear-gradient" x1="-675.19" y1="745.67" x2="-673.06" y2="745.67" gradientTransform="matrix(15.28, 0, 0, -70.78, 10328.68, 53044.71)" gradientUnits="userSpaceOnUse"><stop offset="0" stop-color="#babdb6"/><stop offset="1" stop-color="#babdb6" stop-opacity="0"/></linearGradient><linearGradient id="linear-gradient-2" x1="-694.44" y1="745.62" x2="-692.31" y2="745.62" gradientTransform="matrix(14.42, 0, 0, -71.05, 10456.91, 53242.62)" xlink:href="#linear-gradient"/><linearGradient id="linear-gradient-3" x1="-678.75" y1="750" x2="-677.04" y2="750" gradientTransform="matrix(10.21, 0, 0, -13.53, 7385.94, 10348.82)" gradientUnits="userSpaceOnUse"><stop offset="0" stop-color="#2e3436"/><stop offset="1" stop-color="#2e3436" stop-opacity="0"/></linearGradient><linearGradient id="linear-gradient-4" x1="-678.73" y1="750" x2="-677.06" y2="750" xlink:href="#linear-gradient-3"/><linearGradient id="linear-gradient-5" x1="-646.91" y1="749.99" x2="-645.2" y2="749.99" gradientTransform="matrix(10.19, 0, 0, -14.07, 6613.18, 10753.15)" xlink:href="#linear-gradient-3"/><linearGradient id="linear-gradient-6" x1="-646.88" y1="749.99" x2="-645.22" y2="749.99" gradientTransform="matrix(10.19, 0, 0, -14.07, 6613.18, 10753.15)" xlink:href="#linear-gradient-3"/><linearGradient id="linear-gradient-7" x1="182.24" y1="548.71" x2="182.24" y2="409.4" gradientTransform="matrix(1.13, 0, 0, -0.53, 34.06, 563.13)" gradientUnits="userSpaceOnUse"><stop offset="0" stop-opacity="0"/><stop offset="0.5"/><stop offset="1" stop-opacity="0"/></linearGradient><radialGradient id="radial-gradient" cx="322.28" cy="479.87" r="67.19" gradientTransform="matrix(1.13, 0, 0, -0.53, 40.04, 492.82)" gradientUnits="userSpaceOnUse"><stop offset="0"/><stop offset="1" stop-opacity="0"/></radialGradient><radialGradient id="radial-gradient-2" cx="-779.34" cy="479.87" r="67.19" gradientTransform="translate(-793.19 492.82) rotate(180) scale(1.13 0.53)" xlink:href="#radial-gradient"/><linearGradient id="linear-gradient-8" x1="-677.31" y1="747.08" x2="-660.92" y2="739.93" gradientTransform="matrix(16.6, 0, 0, -12.96, 11346.55, 9831.3)" gradientUnits="userSpaceOnUse"><stop offset="0" stop-color="#babdb6"/><stop offset="1" stop-color="#888a8e"/></linearGradient><radialGradient id="radial-gradient-3" cx="-689.93" cy="780.41" r="12.01" gradientTransform="matrix(21.35, 10.13, 11.8, -15.16, 5690.23, 18857.44)" gradientUnits="userSpaceOnUse"><stop offset="0" stop-color="#eeeeec"/><stop offset="1" stop-color="#d3d7cf"/></radialGradient><linearGradient id="linear-gradient-9" x1="-678.63" y1="741.1" x2="-668.52" y2="741.1" gradientTransform="matrix(16.6, 0, 0, -12.96, 11354, 9884.42)" gradientUnits="userSpaceOnUse"><stop offset="0" stop-color="#888a85"/><stop offset="1" stop-color="#babdb6" stop-opacity="0"/></linearGradient><linearGradient id="linear-gradient-10" x1="-674.12" y1="740.58" x2="-674.15" y2="742.55" gradientTransform="matrix(16.6, 0, 0, -12.96, 11346.55, 9831.3)" gradientUnits="userSpaceOnUse"><stop offset="0" stop-color="#eee"/><stop offset="1" stop-color="#eee" stop-opacity="0"/></linearGradient><linearGradient id="linear-gradient-11" x1="-678.83" y1="759.96" x2="-657.23" y2="730.54" gradientTransform="matrix(16.6, 0, 0, -12.96, 11346.55, 9831.3)" gradientUnits="userSpaceOnUse"><stop offset="0" stop-color="#fff"/><stop offset="1" stop-color="#fff" stop-opacity="0"/></linearGradient><linearGradient id="linear-gradient-12" x1="-696.29" y1="749.1" x2="-694.58" y2="749.1" gradientTransform="matrix(22.5, 0, 0, -17.75, 15899.14, 13503.09)" xlink:href="#linear-gradient-3"/><linearGradient id="linear-gradient-13" x1="-696.27" y1="749.1" x2="-694.6" y2="749.1" gradientTransform="matrix(22.5, 0, 0, -17.75, 15899.14, 13503.09)" xlink:href="#linear-gradient-3"/><linearGradient id="linear-gradient-14" x1="-661.06" y1="753.98" x2="-659.48" y2="753.98" gradientTransform="matrix(7.84, 0, 0, -8.82, 5602.49, 6861.41)" gradientUnits="userSpaceOnUse"><stop offset="0" stop-color="#73d216"/><stop offset="0.26" stop-color="#8ae234"/><stop offset="0.59" stop-color="#4e9a06"/><stop offset="1" stop-color="#73d216"/></linearGradient><linearGradient id="linear-gradient-15" x1="-661.06" y1="755.22" x2="-659.48" y2="755.22" gradientTransform="matrix(7.84, 0, 0, -8.82, 5602.49, 6887.06)" gradientUnits="userSpaceOnUse"><stop offset="0" stop-color="#eeeeec"/><stop offset="0.5" stop-color="#c00"/><stop offset="1" stop-color="#a40000"/></linearGradient><clipPath id="clip-path" transform="translate(-5.76 70.31)"/><clipPath id="clip-path-2" transform="translate(-5.76 70.31)"><polygon class="cls-1" points="267.26 373.29 422.96 373.29 422.96 491.16 267.26 491.16 267.26 373.29 267.26 373.29"/></clipPath><linearGradient id="linear-gradient-16" x1="-728.28" y1="770.28" x2="-727.8" y2="770.28" gradientTransform="matrix(325.83, 250, 250, -325.83, 44996.79, 433427.04)" gradientUnits="userSpaceOnUse"><stop offset="0" stop-color="#fff"/><stop offset="1" stop-color="#231f20"/></linearGradient><clipPath id="clip-path-3" transform="translate(-5.76 70.31)"><polygon class="cls-1" points="289.45 275.57 403.24 275.57 403.24 350.17 289.45 350.17 289.45 275.57 289.45 275.57"/></clipPath><linearGradient id="linear-gradient-17" x1="-732.37" y1="770" x2="-731.89" y2="770" gradientTransform="matrix(-205, -152.5, -152.5, 205, -32304.82, -269182.53)" xlink:href="#linear-gradient-16"/></defs><g id="Layer_2" data-name="Layer 2"><path id="path841" class="cls-2" d="M30.63,261c-10.56,51.44-17.07,162.31,90.93,189.67L107,498.5l92.66-50.32L150,357.08,136.4,401.84C70.43,387,35.92,296.48,30.62,261Z" transform="translate(-5.76 70.31)"/><g id="layer1"><g id="g12792"><g id="g12756"><rect id="rect2300" class="cls-1" width="487.57" height="487.57"/><rect id="rect2231" class="cls-3" x="11.38" y="237.67" width="29.92" height="64.47"/><rect id="rect3211" class="cls-4" x="445.05" y="233.38" width="28.23" height="64.72"/><path id="path3215" class="cls-5" d="M474.25,198.06a8,8,0,0,1-16,0h0a8,8,0,0,1,16,0Z" transform="translate(-5.76 70.31)"/><path id="path4205" class="cls-6" d="M38.94,202a8,8,0,1,1-16,0h0a8,8,0,1,1,16,0Z" transform="translate(-5.76 70.31)"/><rect id="rect6709" class="cls-7" x="83.49" y="270.78" width="312.91" height="74.22"/><path id="path6711" class="cls-8" d="M402.15,200.47v74.22c33.38.14,80.68-16.63,80.68-37.11S445.59,200.47,402.15,200.47Z" transform="translate(-5.76 70.31)"/><path id="path6713" class="cls-9" d="M89.25,200.47v74.22c-33.37.14-80.68-16.63-80.68-37.11S45.81,200.47,89.25,200.47Z" transform="translate(-5.76 70.31)"/><path id="path4196" class="cls-10" d="M125.81,14.24c-6,0-9.82,2.16-12.2,6.27L52,147.69s-2.38,5-2.38,13.24v71.75c0,8,6.26,12.08,15.77,12.08H432.63c9.38,0,15.18-5.34,15.18-13.7V159.3s1-5.72-.89-9.76l-64-127.87c-1.75-3.8-6.06-7.34-10.71-7.43Z" transform="translate(-5.76 70.31)"/><path id="path4170" class="cls-11" d="M49.51,155.77l7.28-5.15,358.16.46,33,2.36v77.62c0,8.37-5.78,13.71-15.16,13.71H65.34c-9.51,0-15.83-4-15.83-12.08Z" transform="translate(-5.76 70.31)"/><path id="path3093" class="cls-12" d="M52.14,147.72c-6.81,10.89,0,17.79,9.86,17.79H433.4c10.66-.18,17.57-7.52,13.6-15.93l-63.94-128c-1.75-3.81-6.23-7.35-10.88-7.44H125.94c-6,0-9.86,2.26-12.24,6.38Z" transform="translate(-5.76 70.31)"/><rect id="rect4174" class="cls-13" x="87.41" y="257.14" width="167.84" height="41.36"/><path id="path4194" class="cls-14" d="M93.17,228.19V198.36c17.48,23.64,79,29.83,123.2,29.83Z" transform="translate(-5.76 70.31)"/><path id="path4201" class="cls-15" d="M444.93,145.59c.61,9.3-3.94,17.22-12.59,17.43h-363c-12.28,0-17.79-2.41-19.85-6.45.87,7,7.87,12.26,19.85,12.26h363c10.25-.25,16.7-10.59,12.88-22.27Z" transform="translate(-5.76 70.31)"/><path id="path4224" class="cls-16" d="M274.74,206.76c0,6.87-10.39,12.44-23.21,12.45s-23.23-5.57-23.24-12.44h0c0-6.87,10.38-12.45,23.21-12.45s23.23,5.56,23.24,12.43Z" transform="translate(-5.76 70.31)"/><path id="path4252" class="cls-17" d="M129.21,17.61c-5.73,0-9.45,2.08-11.75,6L56.37,147s-2.29,4.8-2.29,12.75v69.07c0,10.08,4.23,12.1,15.19,12.1H428.16c12.6,0,14.61-2.35,14.61-13.66V158.19s1-5.51-.86-9.39l-62.79-125a10.65,10.65,0,0,0-9.71-6.23Z" transform="translate(-5.76 70.31)"/><path id="path4282" class="cls-18" d="M404,188.72v37.34" transform="translate(-5.76 70.31)"/><path id="path4284" class="cls-18" d="M385,189.17V226.5" transform="translate(-5.76 70.31)"/><path id="path4286" class="cls-18" d="M365.93,189.17V226.5" transform="translate(-5.76 70.31)"/><path id="path4288" class="cls-18" d="M346.88,189.17V226.5" transform="translate(-5.76 70.31)"/><path id="path4290" class="cls-18" d="M327.84,189.17V226.5" transform="translate(-5.76 70.31)"/><path id="path4292" class="cls-18" d="M308.79,189.17V226.5" transform="translate(-5.76 70.31)"/><path id="path4294" class="cls-19" d="M394.5,189.09v37.34" transform="translate(-5.76 70.31)"/><path id="path4296" class="cls-19" d="M375.45,189.54v37.33" transform="translate(-5.76 70.31)"/><path id="path4298" class="cls-19" d="M356.41,189.54v37.33" transform="translate(-5.76 70.31)"/><path id="path4300" class="cls-19" d="M337.36,189.54v37.33" transform="translate(-5.76 70.31)"/><path id="path4302" class="cls-19" d="M318.31,189.54v37.33" transform="translate(-5.76 70.31)"/><path id="path4572" class="cls-20" d="M93.33,186.93v41.12H213L96.61,225.5Z" transform="translate(-5.76 70.31)"/><path id="path2229" class="cls-16" d="M267.68,209c0,5.59-7.34,10.13-16.42,10.14s-16.43-4.53-16.44-10.13h0c0-5.6,7.35-10.14,16.42-10.14s16.44,4.53,16.44,10.13Z" transform="translate(-5.76 70.31)"/><path id="path4212" class="cls-21" d="M272.55,208.23c0,5.71-7.9,10.35-17.67,10.35S237.2,214,237.2,208.24h0c0-5.72,7.9-10.35,17.66-10.36s17.69,4.63,17.69,10.35Z" transform="translate(-5.76 70.31)"/><path id="path22448" class="cls-22" d="M429.15,209.91c0,2.84-2.76,5.15-6.16,5.15s-6.17-2.3-6.17-5.14h0c0-2.84,2.76-5.14,6.16-5.14s6.17,2.3,6.17,5.14Z" transform="translate(-5.76 70.31)"/><path id="path22450" class="cls-23" d="M427.24,210.43a5.29,5.29,0,0,1-10.51,0h0a5.28,5.28,0,0,1,10.51,0Z" transform="translate(-5.76 70.31)"/><path id="path8888" class="cls-24" d="M429.15,224.62c0,2.84-2.76,5.15-6.16,5.15s-6.17-2.3-6.17-5.14h0c0-2.84,2.76-5.14,6.16-5.14s6.17,2.3,6.17,5.14Z" transform="translate(-5.76 70.31)"/><path id="path8890" class="cls-25" d="M427.24,225.14a5.28,5.28,0,0,1-10.51,0h0a5.28,5.28,0,0,1,10.51,0Z" transform="translate(-5.76 70.31)"/></g></g></g><g class="cls-26"><g id="g20"><path id="path22" class="cls-27" d="M398.65,349.68l-.12.05.12-.05" transform="translate(-5.76 70.31)"/></g><g id="g24"><path id="path26" class="cls-27" d="M397.9,349.92l-.19.05.19-.05" transform="translate(-5.76 70.31)"/></g><g id="g28"><path id="path30" class="cls-27" d="M397.1,350.09l-.2,0,.2,0" transform="translate(-5.76 70.31)"/></g><g id="g32"><path id="path34" class="cls-27" d="M267.7,348.85h24.78c-6,1.12-1.91-70.41-3-73.28H283V277H264.67l-3.36,3.58H260l-.06,61.71c0,3.95,3.8,6.56,7.76,6.56" transform="translate(-5.76 70.31)"/></g><g id="g36"><path id="path38" class="cls-27" d="M397.94,350.06l-.29.06.29-.06" transform="translate(-5.76 70.31)"/></g><g id="g40"><path id="path42" class="cls-27" d="M397.16,350.19l-.19,0,.19,0" transform="translate(-5.76 70.31)"/></g><g id="g44"><path id="path46" class="cls-27" d="M399.69,349.18a3.47,3.47,0,0,1-.33.18,2.9,2.9,0,0,0,1.65-.87,2.39,2.39,0,0,1-1.32.69" transform="translate(-5.76 70.31)"/></g><g id="g48"><path id="path50" class="cls-27" d="M402.22,346.68l.06-.11-.06.11" transform="translate(-5.76 70.31)"/></g><g id="g52"><path id="path54" class="cls-27" d="M403,345l.06-.22L403,345" transform="translate(-5.76 70.31)"/></g><g id="g56"><path id="path58" class="cls-27" d="M403.14,344.13c0-.08,0-.16,0-.25,0,.09,0,.17,0,.25" transform="translate(-5.76 70.31)"/></g><g id="g60"><path id="path62" class="cls-27" d="M403.4,344.16a5,5,0,0,1-.11.56,5,5,0,0,0,.11-.56" transform="translate(-5.76 70.31)"/></g><g id="g64"><path id="path66" class="cls-27" d="M398.63,349.86l-.32.1.32-.1" transform="translate(-5.76 70.31)"/></g><g id="g68"><path id="path70" class="cls-27" d="M402.13,347.27c-.13.18-.27.35-.41.52.14-.17.28-.34.41-.52" transform="translate(-5.76 70.31)"/></g><g id="g72"><path id="path74" class="cls-27" d="M402.64,346.47a6.12,6.12,0,0,1-.43.69,6.12,6.12,0,0,0,.43-.69" transform="translate(-5.76 70.31)"/></g><g id="g76"><path id="path78" class="cls-27" d="M403.49,343.08a7.55,7.55,0,0,1-.05.83,7.55,7.55,0,0,0,.05-.83" transform="translate(-5.76 70.31)"/></g><g id="g80"><path id="path82" class="cls-27" d="M403.23,345q-.08.27-.18.54.1-.27.18-.54" transform="translate(-5.76 70.31)"/></g><g id="g84"><path id="path86" class="cls-27" d="M403,345.75a5.55,5.55,0,0,1-.32.7,5.55,5.55,0,0,0,.32-.7" transform="translate(-5.76 70.31)"/></g><g id="g88"><path id="path90" class="cls-27" d="M401.72,347.4l0-.07,0,.07" transform="translate(-5.76 70.31)"/></g><g id="g92"><path id="path94" class="cls-27" d="M399.53,349.48a5.78,5.78,0,0,1-.72.31,5.78,5.78,0,0,0,.72-.31" transform="translate(-5.76 70.31)"/></g><g id="g96"><path id="path98" class="cls-27" d="M401.59,347.93c-.15.16-.3.31-.46.45.16-.14.31-.29.46-.45" transform="translate(-5.76 70.31)"/></g><g id="g100"><path id="path102" class="cls-27" d="M400,349.25c-.13.08-.27.15-.41.22.14-.07.28-.14.41-.22" transform="translate(-5.76 70.31)"/></g><g id="g104"><path id="path106" class="cls-28" d="M258.55,343.08a7.15,7.15,0,0,0,7.16,7.16H396.33a7.09,7.09,0,0,0,3.62-1h0c-1.24,1.29-106.29,2.17-107.47-.4H267.7c-4,0-7.76-2.61-7.76-6.56l.06-61.71h-1.39Z" transform="translate(-5.76 70.31)"/></g><g id="g108"><path id="path110" class="cls-28" d="M403.18,343.88a7.18,7.18,0,0,1-3.49,5.3c2.45-.75,3.76-3.68,3.8-6.1l-.23-62.42,0-5.09c-.06,1.2.11,67.16-.06,68.31" transform="translate(-5.76 70.31)"/></g><path id="path112" class="cls-29" d="M447,482H436.26v-8.75H447Zm-193,0H243.27v-8.75H254Zm-5.7-192.07,4.64,11-2.14-.44v6.4h-5v-6.4l-2.14.44Zm188.05-14.33h-8.53v1.51H409.49l-3.36,3.58h-2.87c-1.43,4.25,3.94,68.39-3.31,68.59a7.09,7.09,0,0,1-3.62,1H265.71a7.15,7.15,0,0,1-7.16-7.16l.06-62.5h.26v-5c-6,.75-20.58-3-20.37,7.16V492.2c-.22,9.88,14.14,6.69,20.1,7.16V372.25a7.16,7.16,0,0,1,7.16-7.16H424.45a7.16,7.16,0,0,1,7.16,7.16V499.36c6-.62,20.77,2.93,20.55-7.16v-200l-15.8-16.65Z" transform="translate(-5.76 70.31)"/><g id="g114"><path id="path116" class="cls-30" d="M441.63,481.66h.14c-5.11-.07-5.11-8.06,0-8.12-5.36-.26-5.5,8.2-.14,8.12" transform="translate(-5.76 70.31)"/></g><path id="path118" class="cls-27" d="M385.43,285.71H356.49V343.9h28.94Z" transform="translate(-5.76 70.31)"/><g id="g120"><path id="path122" class="cls-27" d="M423,484.71a6.45,6.45,0,0,1-6.45,6.45H273.71a6.45,6.45,0,0,1-6.45-6.45v-105a6.45,6.45,0,0,1,6.45-6.45h142.8a6.45,6.45,0,0,1,6.45,6.45Zm1.49-119.62H265.77a7.16,7.16,0,0,0-7.16,7.16V499.36h173V372.25a7.16,7.16,0,0,0-7.16-7.16" transform="translate(-5.76 70.31)"/></g><g id="g124"><path id="path126" class="cls-27" d="M441.63,473.53c5.28-.06,5.28,8.2,0,8.13s-5.27-8.21,0-8.13M436.26,482H447v-8.75H436.26Z" transform="translate(-5.76 70.31)"/></g><g id="g128"><path id="path130" class="cls-27" d="M245.82,306.82h5v-6.4l2.14.44-4.64-11-4.63,11,2.14-.44Z" transform="translate(-5.76 70.31)"/></g><path id="path132" class="cls-31" d="M412.78,385.27H277.44v-.6H412.78Zm0,13.5H277.44v-.6H412.78Zm0,13.5H277.44v-.6H412.78Zm0,13.5H277.44v-.59H412.78Zm0,13.51H277.44v-.6H412.78Zm0,13.5H277.44v-.6H412.78Zm0,13.5H277.44v-.6H412.78Zm0,13.5H277.44v-.59H412.78Zm3.73-106.49H273.71a6.45,6.45,0,0,0-6.45,6.45v105a6.45,6.45,0,0,0,6.45,6.45h142.8a6.45,6.45,0,0,0,6.45-6.45v-105a6.45,6.45,0,0,0-6.45-6.45" transform="translate(-5.76 70.31)"/><g id="g134"><g id="g152"><g class="cls-32"><g id="g154" class="cls-33"><g id="g156"><g id="g158"><g id="g160"><g id="g162"><path id="path164" class="cls-34" d="M412.78,385.27H277.44v-.6H412.78Zm0,13.5H277.44v-.6H412.78Zm0,13.5H277.44v-.6H412.78Zm0,13.5H277.44v-.59H412.78Zm0,13.51H277.44v-.6H412.78Zm0,13.5H277.44v-.6H412.78Zm0,13.5H277.44v-.6H412.78Zm0,13.5H277.44v-.59H412.78Zm3.73-106.49H273.71a6.45,6.45,0,0,0-6.45,6.45v105a6.45,6.45,0,0,0,6.45,6.45h142.8a6.45,6.45,0,0,0,6.45-6.45v-105a6.45,6.45,0,0,0-6.45-6.45" transform="translate(-5.76 70.31)"/></g></g></g></g></g></g></g></g><path id="path166" class="cls-35" d="M277.44,385.27H412.78v-.6H277.44Z" transform="translate(-5.76 70.31)"/><path id="path168" class="cls-35" d="M277.44,398.77H412.78v-.6H277.44Z" transform="translate(-5.76 70.31)"/><path id="path170" class="cls-35" d="M277.44,412.27H412.78v-.6H277.44Z" transform="translate(-5.76 70.31)"/><path id="path172" class="cls-35" d="M277.44,425.77H412.78v-.59H277.44Z" transform="translate(-5.76 70.31)"/><path id="path174" class="cls-35" d="M277.44,439.28H412.78v-.6H277.44Z" transform="translate(-5.76 70.31)"/><path id="path176" class="cls-35" d="M277.44,452.78H412.78v-.6H277.44Z" transform="translate(-5.76 70.31)"/><path id="path178" class="cls-35" d="M277.44,466.28H412.78v-.6H277.44Z" transform="translate(-5.76 70.31)"/><path id="path180" class="cls-35" d="M277.44,479.78H412.78v-.59H277.44Z" transform="translate(-5.76 70.31)"/><path id="path182" class="cls-36" d="M356.49,285.71h28.94V343.9H356.49Zm-64,63.14a7.11,7.11,0,0,0,4.13,1.32h99.47a7.23,7.23,0,0,0,7.16-7.16V275.57H289.45c1.15,3.13-3,74.18,3,73.28" transform="translate(-5.76 70.31)"/><g id="g184"><g id="g202"><g class="cls-37"><g id="g204" class="cls-38"><g id="g206"><g id="g208"><g id="g210"><g id="g212"><path id="path214" class="cls-39" d="M356.49,285.71h28.94V343.9H356.49Zm-64,63.14a7.11,7.11,0,0,0,4.13,1.32h99.47a7.23,7.23,0,0,0,7.16-7.16V275.57H289.45c1.15,3.13-3,74.18,3,73.28" transform="translate(-5.76 70.31)"/></g></g></g></g></g></g></g></g></g><g id="svgg"><path id="path0" class="cls-40" d="M175.57,35.45a1.87,1.87,0,0,1-.75.11c-.33,0-.62,0-.63.11s-.27.11-.56.11-.54,0-.56.11-.19.11-.38.11-.37,0-.39.11-.18.1-.36.1a6.32,6.32,0,0,0-1.95.57s-.18.09-.38.09-.37.05-.39.11-.12.11-.24.11a18.68,18.68,0,0,0-4.51,2.15,2.64,2.64,0,0,1-.67.41,2,2,0,0,0-.69.5.26.26,0,0,1-.23.18.26.26,0,0,0-.23.18.16.16,0,0,1-.24.09c-.11-.05-.15,0-.1,0s-.06.2-.24.3a.82.82,0,0,0-.38.35.28.28,0,0,1-.24.18.31.31,0,0,0-.25.22.31.31,0,0,1-.25.23c-.1,0-.22.13-.27.28a.58.58,0,0,1-.29.35.55.55,0,0,0-.28.33.84.84,0,0,1-.36.41c-.4.21-20.64,64.68-20.26,64.79.15,0,.19.32.1.61s-.06.53.06.53.17.2.09.44-.05.5.06.56a.45.45,0,0,1,.08.47c-.06.2,0,.36.12.36s.18.17.12.37,0,.37.11.37a.17.17,0,0,1,.16.24.94.94,0,0,0,.26.65c.19.22.32.47.29.56s.12.32.31.51.34.41.32.49a13.72,13.72,0,0,0,2.75,3c.12,0,.32.17.45.38s.33.39.47.39a1.86,1.86,0,0,1,.75.44,6,6,0,0,0,1.36.81c.47.19.83.42.81.51s.16.17.41.17a.71.71,0,0,1,.55.19c0,.11.35.2.67.2s.55.09.52.19.27.2.66.2.69.09.66.19.3.2.73.2a1.92,1.92,0,0,1,1,.18c.4.41,6.41.45,71.92.53l68.29.08.67,4.28.69,4.39H212.14l.15-2.62.14-2.58-12.28,0-12.28,0-.75,4.87c-.48,3.11-.69,5.07-.55,5.15s.16.51.09,1,0,.84.09.84.23.33.24.72A15.78,15.78,0,0,0,189.7,144a8.84,8.84,0,0,1,.75,1,7.87,7.87,0,0,0,2.15,2.22c.41.31,1,.81,1.37,1.1a8.08,8.08,0,0,0,1.35.89,4.52,4.52,0,0,1,.83.5,8.85,8.85,0,0,0,2.59,1.19c.2,0,.35.1.34.23s.26.23.62.23.63.11.62.23.32.24.75.24.76.1.75.23.44.23,1,.23,1,.11,1,.24,16.9.23,50.24.23,50.26-.08,50.23-.23.42-.24,1-.24,1-.1,1-.23.3-.23.73-.23.76-.11.73-.24.25-.23.61-.23.62-.1.6-.23.1-.23.29-.23c.47,0,1.62-.55,1.58-.76s.13-.17.33-.17.39-.08.42-.17a2.52,2.52,0,0,1,.87-.58c1.91-1,5.42-4.7,5.92-6.29.08-.23.23-.42.35-.42s.17-.2.12-.43,0-.45.09-.5a3.67,3.67,0,0,0,.83-2.16c-.06-.24,0-.43.15-.43s.2-.22.14-.49a1,1,0,0,1,.06-.71c.84-1-2.28-17.47-3.8-20.42a13.54,13.54,0,0,0-2-3,.45.45,0,0,1-.26-.32,6.29,6.29,0,0,0-1.63-2c-.1,0-.22-.17-.27-.37s-.16-.37-.26-.37a1.85,1.85,0,0,1-.67-.51c-1.16-1.2-4.6-3.68-5.1-3.68a3.07,3.07,0,0,1-.94-.5,7.38,7.38,0,0,0-1.37-.74,1.64,1.64,0,0,1-.7-.4c0-.09-.23-.15-.48-.15s-.46-.07-.48-.15a2,2,0,0,0-.86-.39,1.94,1.94,0,0,1-.86-.38c0-.08-.33-.15-.7-.15s-.69-.08-.71-.17-.34-.18-.71-.18-.69-.08-.7-.18-.44-.17-.93-.17-.91-.08-.93-.18a3.33,3.33,0,0,0-1.48-.17,4.48,4.48,0,0,1-1.61-.18c-.11-.12-22-.18-65-.18H162.88L170.43,72l6.21-25.45H323.72L331.8,72,341.63,103,333,103l-8.67,0,2.4,9.11,2.53,9.65,11.39,0c7.44,0,11.46,0,11.57-.15a2.45,2.45,0,0,1,1.18-.2,2,2,0,0,0,1.08-.19c.05-.11.45-.2.9-.2s.78-.09.75-.2.14-.19.4-.19.45-.09.41-.2.19-.19.51-.19.61-.09.65-.2.29-.19.54-.19.42-.09.39-.2.12-.19.35-.19a.76.76,0,0,0,.62-.39.72.72,0,0,1,.57-.38.73.73,0,0,0,.56-.39.69.69,0,0,1,.48-.38c.49,0,3.59-3.78,3.43-4.18,0-.1,0-.19.16-.19s.19-.12.13-.28,0-.28.12-.28.19-.12.13-.28,0-.28.12-.28.17-.16.09-.37,0-.37.09-.37.17-.17.09-.37,0-.37.09-.37.16-.16.08-.37,0-.36.09-.36.17-.16.09-.36,0-.41.05-.47.11-.29,0-.52a.68.68,0,0,1,0-.63c.29-.33-24.88-64.84-25.3-65.05a.84.84,0,0,1-.38-.41.67.67,0,0,0-.31-.33.62.62,0,0,1-.32-.35c-.06-.15-.19-.28-.29-.28a.34.34,0,0,1-.27-.23.35.35,0,0,0-.27-.22.32.32,0,0,1-.26-.22.46.46,0,0,0-.27-.26.55.55,0,0,1-.3-.21,1.77,1.77,0,0,0-.51-.35,1.16,1.16,0,0,1-.44-.32,2.3,2.3,0,0,0-.71-.46,2.35,2.35,0,0,1-.7-.43,21,21,0,0,0-4.7-2.13.24.24,0,0,1-.22-.11c0-.06-.2-.11-.4-.11s-.37,0-.38-.09a6.7,6.7,0,0,0-2-.57c-.19,0-.36,0-.38-.1s-.2-.11-.39-.11-.37,0-.39-.11-.23-.11-.47-.11a1.28,1.28,0,0,1-.58-.11,1.85,1.85,0,0,0-.74-.11,1.85,1.85,0,0,1-.74-.11c-.21-.15-148.93-.15-149.12,0" transform="translate(-5.76 70.31)"/><path id="path1" class="cls-41" d="M192.71,91.23l-1.35,8.61h23.29l.71-8.61.67-8.15H194l-1.27,8.15" transform="translate(-5.76 70.31)"/><path id="path2" class="cls-41" d="M166.19,21.77" transform="translate(-5.76 70.31)"/><path id="path3" class="cls-41" d="M166.19,21.77" transform="translate(-5.76 70.31)"/><path id="path4" class="cls-41" d="M166.19,21.77" transform="translate(-5.76 70.31)"/></g><g id="svgg-2" data-name="svgg"><path id="path0-2" data-name="path0" class="cls-40" d="M303.8,395.63c0,.06-.22.1-.41.1s-.35,0-.35.11-.14.1-.31.1-.31,0-.31.1-.09.1-.2.1-.2.05-.2.1-.09.11-.2.11a2.21,2.21,0,0,0-1,.52c0,.05-.09.09-.2.09s-.21,0-.21.1-.05.1-.12.1a7.66,7.66,0,0,0-2.22,2,1.19,1.19,0,0,1-.31.38.93.93,0,0,0-.3.45c0,.09-.05.16-.11.16s-.1.07-.1.16-.05.13-.12.09-.09,0-.05,0,0,.18-.08.27a.49.49,0,0,0-.16.31c0,.09,0,.16-.1.16s-.1.09-.1.2-.05.21-.1.21-.1.11-.1.25-.05.28-.11.31a.41.41,0,0,0-.1.29.58.58,0,0,1-.13.36c-.18.19-.18,45.63,0,45.69s.13.18.13.34.05.3.1.3.11.11.11.25a.42.42,0,0,0,.1.31.35.35,0,0,1,.1.26c0,.11.05.2.1.2s.1.09.1.2.05.21.11.21a.12.12,0,0,1,.1.13.75.75,0,0,0,.2.35.86.86,0,0,1,.21.31.69.69,0,0,0,.2.28.62.62,0,0,1,.2.27,10.15,10.15,0,0,0,1.6,1.61c.05,0,.16.1.24.21s.19.2.25.2a1,1,0,0,1,.38.24,3.24,3.24,0,0,0,.69.42c.23.1.41.23.41.28s.09.08.2.08a.35.35,0,0,1,.26.1.43.43,0,0,0,.32.11c.13,0,.24,0,.24.1s.14.1.31.1.31.05.31.1.15.1.33.1a.86.86,0,0,1,.44.1c.21.21,2.8.23,31,.27l29.35,0v4.39H329.46l0-1.3,0-1.3-5.23,0-5.23,0v2.45a14.12,14.12,0,0,0,.1,2.5.77.77,0,0,1,.1.47c0,.22,0,.4.09.4s.12.16.15.34a8.9,8.9,0,0,0,1.47,2.87c.1.12.26.33.36.48a4,4,0,0,0,1,1l.61.49a3.74,3.74,0,0,0,.58.4,2.53,2.53,0,0,1,.36.22,3.62,3.62,0,0,0,1.08.53c.07,0,.14,0,.14.1s.11.1.25.1.26.05.26.1.14.1.31.1.3.05.3.11.19.1.41.1.41,0,.41.1,6.66.1,19.79.1,19.79,0,19.79-.1.18-.1.41-.1.41-.05.41-.1.13-.11.3-.11.31,0,.31-.1.11-.1.25-.1.26-.05.26-.1.06-.1.13-.1.68-.24.68-.34.07-.07.15-.07a.22.22,0,0,0,.18-.08,1.35,1.35,0,0,1,.39-.26,9.77,9.77,0,0,0,2.89-2.83c.06-.11.14-.2.18-.2s.09-.09.09-.19,0-.22.08-.23a2.33,2.33,0,0,0,.53-1c0-.11,0-.2.1-.2s.11-.11.11-.24a.62.62,0,0,1,.09-.33c.43-.46.71-8.69.35-10.24a6.49,6.49,0,0,0-.57-1.62.22.22,0,0,1-.08-.18,2.7,2.7,0,0,0-.53-1.06s-.08-.09-.08-.2,0-.21-.08-.21-.16-.13-.25-.28a8.06,8.06,0,0,0-1.93-2.07.93.93,0,0,1-.38-.28,2.6,2.6,0,0,0-.55-.42c-.15-.08-.28-.18-.28-.23s-.09-.09-.2-.09-.21,0-.21-.08-.16-.14-.35-.22-.36-.18-.36-.22-.14-.09-.31-.09-.3,0-.3-.1-.14-.1-.31-.1-.3-.05-.3-.1-.19-.11-.41-.11-.41,0-.41-.1-.29-.1-.66-.1a1.71,1.71,0,0,1-.72-.1c0-.07-10-.1-29.59-.1H306V405.63h81.4v39.88l-3.95,0-3.95,0v10.3l4.89,0a49.87,49.87,0,0,0,5-.08,1.06,1.06,0,0,1,.54-.1.88.88,0,0,0,.49-.1.62.62,0,0,1,.42-.11c.19,0,.35,0,.35-.1s.09-.1.2-.1.2-.05.2-.1.12-.1.25-.1a.43.43,0,0,0,.32-.11.35.35,0,0,1,.26-.1c.11,0,.19,0,.19-.1s.09-.1.19-.1a.46.46,0,0,0,.32-.21.5.5,0,0,1,.31-.2.48.48,0,0,0,.31-.2.44.44,0,0,1,.27-.21,10.73,10.73,0,0,0,2.17-2.24.1.1,0,0,1,.11-.1c.05,0,.1-.07.1-.16s0-.15.1-.15.1-.07.1-.15.05-.16.1-.16.11-.09.11-.2,0-.2.1-.2.1-.1.1-.21.05-.2.1-.2.11-.09.11-.21,0-.2.1-.2.1-.09.1-.2a.32.32,0,0,1,.1-.26c.06,0,.1-.17.1-.29a.58.58,0,0,1,.13-.36c.19-.19.19-45.64,0-45.83a.58.58,0,0,1-.13-.36c0-.12,0-.26-.1-.29s-.1-.18-.1-.31,0-.25-.1-.25-.1-.09-.1-.21-.05-.2-.11-.2-.1-.09-.1-.19,0-.22-.09-.23a.27.27,0,0,1-.13-.19.74.74,0,0,0-.21-.32.52.52,0,0,1-.18-.29,1,1,0,0,0-.31-.41,1,1,0,0,1-.3-.39,7.58,7.58,0,0,0-2.24-2,.1.1,0,0,1-.11-.1c0-.06-.09-.1-.2-.1s-.21,0-.21-.09a2.21,2.21,0,0,0-1-.52c-.1,0-.19-.05-.19-.11s-.09-.1-.21-.1-.2,0-.2-.1-.11-.1-.25-.1a.43.43,0,0,1-.31-.1.61.61,0,0,0-.41-.11.62.62,0,0,1-.41-.1c-.08-.14-86.11-.14-86.2,0" transform="translate(-5.76 70.31)"/><path id="path1-2" data-name="path1" class="cls-41" d="M318.75,438.43v5.25h10.71V433.17H318.75v5.26" transform="translate(-5.76 70.31)"/><path id="path2-2" data-name="path2" class="cls-41" d="M295.9,382.06" transform="translate(-5.76 70.31)"/><path id="path3-2" data-name="path3" class="cls-41" d="M295.9,382.06" transform="translate(-5.76 70.31)"/><path id="path4-2" data-name="path4" class="cls-41" d="M295.9,382.06" transform="translate(-5.76 70.31)"/></g></g></svg>